<?xml version="1.0" encoding="UTF-8" standalone="no"?>
<svg
   xmlns:dc="http://purl.org/dc/elements/1.1/"
   xmlns:cc="http://creativecommons.org/ns#"
   xmlns:rdf="http://www.w3.org/1999/02/22-rdf-syntax-ns#"
   xmlns:svg="http://www.w3.org/2000/svg"
   xmlns="http://www.w3.org/2000/svg"
   xmlns:xlink="http://www.w3.org/1999/xlink"
   xmlns:sodipodi="http://sodipodi.sourceforge.net/DTD/sodipodi-0.dtd"
   xmlns:inkscape="http://www.inkscape.org/namespaces/inkscape"
   viewBox="-350 -300 900 600"
   width="900"
   height="600"
   id="svg3343"
   version="1.1"
   inkscape:version="0.91 r13725"
   sodipodi:docname="YR-Naval_Ensign_of_Japan.svg">
  <metadata
     id="metadata3367">
    <rdf:RDF>
      <cc:Work
         rdf:about="">
        <dc:format>image/svg+xml</dc:format>
        <dc:type
           rdf:resource="http://purl.org/dc/dcmitype/StillImage" />
        <dc:title></dc:title>
      </cc:Work>
    </rdf:RDF>
  </metadata>
  <defs
     id="defs3365" />
  <sodipodi:namedview
     pagecolor="#ffffff"
     bordercolor="#666666"
     borderopacity="1"
     objecttolerance="10"
     gridtolerance="10"
     guidetolerance="10"
     inkscape:pageopacity="0"
     inkscape:pageshadow="2"
     inkscape:window-width="686"
     inkscape:window-height="480"
     id="namedview3363"
     showgrid="false"
     inkscape:zoom="0.31555556"
     inkscape:cx="450"
     inkscape:cy="300"
     inkscape:window-x="2209"
     inkscape:window-y="622"
     inkscape:window-maximized="0"
     inkscape:current-layer="svg3343" />
  <rect
     fill="#FFF"
     x="-350"
     y="-300"
     width="900"
     height="600"
     id="rect3345" />
  <g
     fill="#be0026"
     id="g3347"
     style="fill:#00b9f1;fill-opacity:1">
	 
    <g
       id="o"
       style="fill:#00b9f1;fill-opacity:1">
      <g
         id="r"
         style="fill:#00b9f1;fill-opacity:1">
        <g
           id="q"
           style="fill:#00b9f1;fill-opacity:1">
          <polygon
             id="p"
             points="0 0 620.6354488 61.12725632 620.6354488 -61.12725632"
             style="fill:#00b9f1;fill-opacity:1" />
          <use
             xlink:href="#p"
             transform="rotate(180)"
             id="use3353"
             style="fill:#00b9f1;fill-opacity:1" />
        </g>
        <use
           xlink:href="#q"
           transform="rotate(90)"
           id="use3355"
           style="fill:#00b9f1;fill-opacity:1" />
		   
      </g>
      <use
         xlink:href="#r"
         transform="rotate(45)"
         id="use3357"
         style="fill:#00b9f1;fill-opacity:1" />

			 <animateTransform xmlns="http://www.w3.org/2000/svg" attributeType="xml" attributeName="transform"
		type="rotate" from="0 0 0" to="360 0 0" dur="4s" repeatCount="indefinite"/>
    </g>
    <g>
	<use
       xlink:href="#o"
       transform="rotate(22.5)"
       id="use3359"
       style="fill:#00b9f1;fill-opacity:1" />
   </g>
    <circle
       r="150"
       id="circle3361"
       style="fill:#00b9f1;fill-opacity:1" />
	<g transform="matrix(3,0,0,3,-150,-150)">
		<path fill="#FFFFFF" d="M80,64.4c-1.7-1.8-4.4-5.5-4.4-5.5c2.4-0.7,4.5-1.9,6.2-3.6c2.7-2.7,4.2-6.6,4.2-10.7 c0-4.3-1.9-8.2-4.8-10.6c-3-2.4-6.8-3.6-10.8-3.6h-7c-6.6,0-11.9,5.3-11.9,11.9v29.5h8v-8.4c0-2.2,1.8-4,4-4h3.2l0,0L75.1,70 l0.6,0.7c0.6,0.6,1.5,1,2.4,1.1v0h0.2c0.1,0,0.1,0,0.2,0s0.1,0,0.2,0h4.7l0-6.4C83.4,65.4,81.4,66,80,64.4z M71.1,51.6h-7.7 c-1.4,0-2.7,0.6-4,1V42.4c0-2.2,1.8-4,4-4h7c2.5,0,4.5,0.7,5.7,1.8c1.2,1.1,1.9,2.3,2,4.5c0,2.3-0.8,3.9-1.9,5.1 C75,50.8,73.4,51.6,71.1,51.6z"></path>
		<path fill="#FFFFFF" d="M46.3,31.8h-7.9l0,12.9c-0.2,4.8-4.6,6.4-8.2,6.4c-4.1-0.1-8.4-2.3-8.4-8.6V31.8H14v10.7 c0,4.9,1.7,9,4.9,12c2.9,2.7,6.8,4.2,11.1,4.3l0,0c0.1,0,0.1,0,0.2,0s0.1,0,0.2,0l0,0c2.9-0.1,7.1-1.9,8-3.6v3.5 c0,4.7-6,7.8-7.6,8.6l0.1,0.1c0,0-0.1,0-0.1,0.1l5,6c2.9-1.7,10.5-5.1,10.5-15.7V31.8L46.3,31.8z"></path>
		</g>
	</g>
</svg>
