<?xml version="1.0" encoding="UTF-8" standalone="no"?>
<svg
   xmlns:dc="http://purl.org/dc/elements/1.1/"
   xmlns:cc="http://creativecommons.org/ns#"
   xmlns:rdf="http://www.w3.org/1999/02/22-rdf-syntax-ns#"
   xmlns:svg="http://www.w3.org/2000/svg"
   xmlns="http://www.w3.org/2000/svg"
   xmlns:xlink="http://www.w3.org/1999/xlink"
   xmlns:sodipodi="http://sodipodi.sourceforge.net/DTD/sodipodi-0.dtd"
   xmlns:inkscape="http://www.inkscape.org/namespaces/inkscape"
   viewBox="-3500 -3000 9000 6000"
   width="9000"
   height="6000"
   id="svg3343"
   version="1.1"
   inkscape:version="0.91 r13725"
   sodipodi:docname="YR-flagg.svg">
  <metadata
     id="metadata3367">
    <rdf:RDF>
      <cc:Work
         rdf:about="">
        <dc:format>image/svg+xml</dc:format>
        <dc:type
           rdf:resource="http://purl.org/dc/dcmitype/StillImage" />
        <dc:title />
      </cc:Work>
    </rdf:RDF>
  </metadata>
  <defs
     id="defs3365" />
  <sodipodi:namedview
     pagecolor="#ffffff"
     bordercolor="#666666"
     borderopacity="1"
     objecttolerance="10"
     gridtolerance="10"
     guidetolerance="10"
     inkscape:pageopacity="0"
     inkscape:pageshadow="2"
     inkscape:window-width="1651"
     inkscape:window-height="1106"
     id="namedview3363"
     showgrid="false"
     inkscape:zoom="0.07888889"
     inkscape:cx="7071.4632"
     inkscape:cy="1668.2326"
     inkscape:window-x="1564"
     inkscape:window-y="101"
     inkscape:window-maximized="0"
     inkscape:current-layer="svg3343" />
  <rect
     fill="#FFF"
     x="-3500"
     y="-3000"
     width="9000"
     height="6000"
     id="rect3345" />
  <g
     id="g3347"
     style="fill:#00b9f1;fill-opacity:1"
     transform="scale(10,10)">
    <g
       id="o"
       style="fill:#00b9f1;fill-opacity:1">
      <g
         id="r"
         style="fill:#00b9f1;fill-opacity:1">
        <g
           id="q"
           style="fill:#00b9f1;fill-opacity:1">
          <polygon
             id="p"
             points="620.63545,61.127256 620.63545,-61.127256 0,0 "
             style="fill:#00b9f1;fill-opacity:1" />
          <use
             xlink:href="#p"
             transform="scale(-1,-1)"
             id="use3353"
             style="fill:#00b9f1;fill-opacity:1"
             x="0"
             y="0"
             width="100%"
             height="100%" />
        </g>
        <use
           xlink:href="#q"
           transform="matrix(0,1,-1,0,0,0)"
           id="use3355"
           style="fill:#00b9f1;fill-opacity:1"
           x="0"
           y="0"
           width="100%"
           height="100%" />
      </g>
      <use
         xlink:href="#r"
         transform="matrix(0.70710678,0.70710678,-0.70710678,0.70710678,0,0)"
         id="use3357"
         style="fill:#00b9f1;fill-opacity:1"
         x="0"
         y="0"
         width="100%"
         height="100%" />
    </g>
    <g
       id="g3458">
      <use
         xlink:href="#o"
         transform="matrix(0.92387953,0.38268343,-0.38268343,0.92387953,0,0)"
         id="use3359"
         style="fill:#00b9f1;fill-opacity:1"
         x="0"
         y="0"
         width="100%"
         height="100%" />
    </g>
    <circle
       r="150"
       id="circle3361"
       style="fill:#00b9f1;fill-opacity:1"
       cx="0"
       cy="0" />
    <g
       transform="matrix(3,0,0,3,-150,-150)"
       id="g3462">
      <path
         d="M 80,64.4 C 78.3,62.6 75.6,58.9 75.6,58.9 78,58.2 80.1,57 81.8,55.3 84.5,52.6 86,48.7 86,44.6 86,40.3 84.1,36.4 81.2,34 78.2,31.6 74.4,30.4 70.4,30.4 l -7,0 c -6.6,0 -11.9,5.3 -11.9,11.9 l 0,29.5 8,0 0,-8.4 c 0,-2.2 1.8,-4 4,-4 l 3.2,0 0,0 8.4,10.6 0.6,0.7 c 0.6,0.6 1.5,1 2.4,1.1 l 0,0 0.2,0 c 0.1,0 0.1,0 0.2,0 0.1,0 0.1,0 0.2,0 l 4.7,0 0,-6.4 c 0,0 -2,0.6 -3.4,-1 z m -8.9,-12.8 -7.7,0 c -1.4,0 -2.7,0.6 -4,1 l 0,-10.2 c 0,-2.2 1.8,-4 4,-4 l 7,0 c 2.5,0 4.5,0.7 5.7,1.8 1.2,1.1 1.9,2.3 2,4.5 0,2.3 -0.8,3.9 -1.9,5.1 -1.2,1 -2.8,1.8 -5.1,1.8 z"
         id="path3464"
         inkscape:connector-curvature="0"
         style="fill:#ffffff" />
      <path
         d="m 46.3,31.8 -7.9,0 0,12.9 c -0.2,4.8 -4.6,6.4 -8.2,6.4 -4.1,-0.1 -8.4,-2.3 -8.4,-8.6 l 0,-10.7 -7.8,0 0,10.7 c 0,4.9 1.7,9 4.9,12 2.9,2.7 6.8,4.2 11.1,4.3 l 0,0 c 0.1,0 0.1,0 0.2,0 0.1,0 0.1,0 0.2,0 l 0,0 c 2.9,-0.1 7.1,-1.9 8,-3.6 l 0,3.5 c 0,4.7 -6,7.8 -7.6,8.6 l 0.1,0.1 c 0,0 -0.1,0 -0.1,0.1 l 5,6 c 2.9,-1.7 10.5,-5.1 10.5,-15.7 l 0,-26 0,0 z"
         id="path3466"
         inkscape:connector-curvature="0"
         style="fill:#ffffff" />
    </g>
  </g>
</svg>
